<svg xmlns="http://www.w3.org/2000/svg" width="18.169" height="21.627" viewBox="0 0 18.169 21.627">
  <g id="Group_2" data-name="Group 2" transform="translate(-164 -16.5)">
    <path id="Path_6" data-name="Path 6" d="M-77.622-171.829v1.894s-.006,2.844,9.062,2.958,8.835-2.958,8.835-2.958v-1.894s-.074-2.583-8.835-2.7S-77.622-171.829-77.622-171.829Z" transform="translate(241.622 191.029)" fill="rgba(0,0,0,0.04)"/>
    <path id="Path_7" data-name="Path 7" d="M-90.771-131.018v4.239s.653,2.882,9.071,2.906,9.1-2.906,9.1-2.906v-4.239a17.1,17.1,0,0,1-9.1,1.926,32.682,32.682,0,0,1-5.376-.473A13.248,13.248,0,0,1-90.771-131.018Z" transform="translate(254.771 155)" fill="rgba(0,0,0,0.04)"/>
    <path id="Path_8" data-name="Path 8" d="M-90.771-131.018v4.239s.653,2.882,9.071,2.906,9.1-2.906,9.1-2.906v-4.239a17.1,17.1,0,0,1-9.1,1.926,32.682,32.682,0,0,1-5.376-.473A13.248,13.248,0,0,1-90.771-131.018Z" transform="translate(254.771 162)" fill="rgba(0,0,0,0.04)"/>
  </g>
</svg>
